<?xml version="1.0" encoding="UTF-8"?>
<svg version="1.1" xmlns="http://www.w3.org/2000/svg" width="100" height="106">
<path d="M0 0 C1.04736328 -0.00515625 2.09472656 -0.0103125 3.17382812 -0.015625 C4.26244141 -0.00015625 5.35105469 0.0153125 6.47265625 0.03125 C7.55740234 0.01578125 8.64214844 0.0003125 9.75976562 -0.015625 C17.60717896 0.02296093 17.60717896 0.02296093 21.64453125 2.234375 C23.67067843 4.69589264 24.78231981 6.7825252 25.84765625 9.78125 C26.33685547 11.11929687 26.33685547 11.11929687 26.8359375 12.484375 C27.18205078 13.49757813 27.18205078 13.49757813 27.53515625 14.53125 C28.03015625 13.520625 28.52515625 12.51 29.03515625 11.46875 C31.75912354 6.84450379 34.85134975 3.24409408 39.53515625 0.53125 C44.01000398 -0.36767323 48.30131335 -0.2706505 52.84765625 -0.09375 C54.02650391 -0.08730469 55.20535156 -0.08085937 56.41992188 -0.07421875 C64.95617923 0.09172336 64.95617923 0.09172336 67.37084961 1.92480469 C71.43668878 7.53462263 68.26391468 20.97740521 67.53515625 27.53125 C66.61884105 33.03335981 65.49210216 38.48235757 64.33203125 43.9375 C64.00894823 45.47631986 63.68605559 47.01517971 63.36334229 48.55407715 C62.69022518 51.75222271 62.01008455 54.94878258 61.32568359 58.14453125 C60.45196632 62.23040524 59.60365023 66.32111816 58.76127243 70.41355133 C58.10488351 73.5819375 57.43149745 76.74653422 56.75333405 79.9103241 C56.43308983 81.41765813 56.11894397 82.92630185 55.81118011 84.43623352 C55.37986215 86.54312566 54.92489935 88.64357969 54.46386719 90.74414062 C54.21151306 91.93736938 53.95915894 93.13059814 53.69915771 94.35998535 C52.32110101 98.11443295 50.50559223 99.90424335 47.53515625 102.53125 C46.51615234 103.65853516 46.51615234 103.65853516 45.4765625 104.80859375 C40.7182263 107.59534842 35.88098483 107.14837958 30.47265625 107.09375 C29.38404297 107.11759766 28.29542969 107.14144531 27.17382812 107.16601562 C19.27021901 107.15142435 19.27021901 107.15142435 15.9609375 104.359375 C15.49042969 103.42609375 15.01992188 102.4928125 14.53515625 101.53125 C14.0453125 100.57605469 13.55546875 99.62085937 13.05078125 98.63671875 C12.633125 97.67378906 12.21546875 96.71085937 11.78515625 95.71875 C11.3571875 94.74292969 10.92921875 93.76710938 10.48828125 92.76171875 C10.17375 92.02566406 9.85921875 91.28960937 9.53515625 90.53125 C9.42300781 91.09972656 9.31085937 91.66820313 9.1953125 92.25390625 C7.65505386 98.28406918 5.24717854 101.42572639 0.27416992 105.10229492 C-4.75894217 107.7280909 -9.78593772 107.38333728 -15.33984375 107.15625 C-16.46648438 107.14980469 -17.593125 107.14335938 -18.75390625 107.13671875 C-26.89116545 106.97124817 -26.89116545 106.97124817 -29.27319336 105.14428711 C-30.91566239 102.92101464 -30.97468903 101.21252846 -31.15234375 98.46875 C-31.21808594 97.59089844 -31.28382812 96.71304688 -31.3515625 95.80859375 C-31.38894531 94.72707031 -31.42632813 93.64554687 -31.46484375 92.53125 C-31.50370697 91.88947311 -31.54257019 91.24769623 -31.58261108 90.58647156 C-31.87043909 82.35502408 -30.11986481 74.52753693 -28.4296875 66.5234375 C-28.11000675 64.98750809 -27.79047518 63.45154763 -27.47108459 61.91555786 C-26.80180783 58.71176216 -26.12375172 55.50996173 -25.44067383 52.30908203 C-24.57149479 48.22780808 -23.73536037 44.14051119 -22.90703487 40.05077934 C-22.25932975 36.88129299 -21.58865206 33.71698201 -20.91171455 30.5536232 C-20.59368686 29.04922177 -20.28389209 27.54305324 -19.98289299 26.03515244 C-18.21492564 17.22966167 -16.31756431 10.67492537 -9.46484375 4.53125 C-8.42734985 3.31018555 -8.42734985 3.31018555 -7.36889648 2.06445312 C-4.83579776 0.02472239 -3.22650682 0.01527986 0 0 Z " fill="#F3C60A" transform="translate(31.46484375,-0.53125)"/>
<path d="M0 0 C1.59134766 0.00580078 1.59134766 0.00580078 3.21484375 0.01171875 C4.86806641 0.04845703 4.86806641 0.04845703 6.5546875 0.0859375 C8.21951172 0.08787109 8.21951172 0.08787109 9.91796875 0.08984375 C18.14882235 0.18007235 18.14882235 0.18007235 20.4296875 2.4609375 C14.1596875 2.7909375 7.8896875 3.1209375 1.4296875 3.4609375 C1.0996875 4.1209375 0.7696875 4.7809375 0.4296875 5.4609375 C-0.653125 6.04875 -0.653125 6.04875 -1.7578125 6.6484375 C-7.87758647 10.59229184 -10.53697938 14.22721853 -12.18800354 21.32080078 C-13.02907678 25.35582129 -13.77481256 29.40512328 -14.5078125 33.4609375 C-15.00693834 36.08365892 -15.51400755 38.70476406 -16.02163696 41.32585144 C-16.36460643 43.09881829 -16.70507249 44.8722712 -17.0430603 46.64619446 C-18.80786492 55.86355844 -20.89420489 65.0001475 -23.03634644 74.13598633 C-23.4674704 75.97664476 -23.89400688 77.8183759 -24.3203125 79.66015625 C-24.56265625 80.68971436 -24.805 81.71927246 -25.0546875 82.7800293 C-25.69622624 85.66059822 -25.69622624 85.66059822 -25.5703125 89.4609375 C-20.27615639 89.83090944 -15.00262611 90.03508352 -9.6953125 89.9140625 C-8.82390625 89.89504883 -7.9525 89.87603516 -7.0546875 89.85644531 C-4.13650424 89.39187604 -2.39046629 88.43550334 -0.0078125 86.7109375 C4.48971854 79.58768025 5.20146923 69.65686497 6.4296875 61.4609375 C7.4196875 61.9559375 7.4196875 61.9559375 8.4296875 62.4609375 C8.83697978 64.78250347 9.17407427 67.1178162 9.4296875 69.4609375 C10.0896875 69.4609375 10.7496875 69.4609375 11.4296875 69.4609375 C14.3996875 76.0609375 17.3696875 82.6609375 20.4296875 89.4609375 C31.60955653 90.55986184 31.60955653 90.55986184 42.296875 88.0078125 C44.30923859 86.22382389 44.30923859 86.22382389 45.859375 84.28515625 C47.4296875 82.4609375 47.4296875 82.4609375 49.90629578 81.26982117 C53.37335893 78.78447026 53.52039053 76.83031501 54.37426758 72.69458008 C54.52130127 72.01139206 54.66833496 71.32820404 54.81982422 70.62431335 C55.29949885 68.37169874 55.7493845 66.11421439 56.19921875 63.85546875 C56.52655644 62.28995754 56.85573958 60.72483115 57.18669128 59.16007996 C58.05175311 55.04558146 58.89166195 50.92633687 59.72644043 46.80560303 C60.58309742 42.59967067 61.46343639 38.39870873 62.34179688 34.19726562 C64.06097975 25.95650341 65.75362229 17.71057674 67.4296875 9.4609375 C67.7596875 9.4609375 68.0896875 9.4609375 68.4296875 9.4609375 C68.05071647 21.39901528 66.75332281 32.68955522 64.2265625 44.35546875 C63.9030325 45.88704788 63.58015034 47.41876398 63.25787354 48.9506073 C62.58774298 52.11956517 61.90757493 55.28615255 61.22021484 58.45141602 C60.34288146 62.49717743 59.49555049 66.54859282 58.65580368 70.60229969 C57.99980988 73.74933799 57.3263981 76.89245606 56.6478653 80.03470421 C56.327918 81.52813427 56.01376561 83.02281878 55.70571136 84.51874733 C55.27454844 86.60124033 54.81963281 88.67716401 54.35839844 90.75317383 C54.10604431 91.93132156 53.85369019 93.1094693 53.59368896 94.32331848 C52.21099017 98.05044612 50.37985525 99.84602261 47.4296875 102.4609375 C46.41068359 103.58822266 46.41068359 103.58822266 45.37109375 104.73828125 C40.61275755 107.52503592 35.77551608 107.07806708 30.3671875 107.0234375 C29.27857422 107.04728516 28.18996094 107.07113281 27.06835938 107.09570312 C19.16475026 107.08111185 19.16475026 107.08111185 15.85546875 104.2890625 C15.38496094 103.35578125 14.91445313 102.4225 14.4296875 101.4609375 C13.93984375 100.50574219 13.45 99.55054687 12.9453125 98.56640625 C12.52765625 97.60347656 12.11 96.64054687 11.6796875 95.6484375 C11.25171875 94.67261719 10.82375 93.69679688 10.3828125 92.69140625 C10.06828125 91.95535156 9.75375 91.21929687 9.4296875 90.4609375 C9.31753906 91.02941406 9.20539062 91.59789063 9.08984375 92.18359375 C7.54958511 98.21375668 5.14170979 101.35541389 0.16870117 105.03198242 C-4.86441092 107.6577784 -9.89140647 107.31302478 -15.4453125 107.0859375 C-16.57195313 107.07949219 -17.69859375 107.07304688 -18.859375 107.06640625 C-26.9966342 106.90093567 -26.9966342 106.90093567 -29.37866211 105.07397461 C-31.02113114 102.85070214 -31.08015778 101.14221596 -31.2578125 98.3984375 C-31.32355469 97.52058594 -31.38929687 96.64273438 -31.45703125 95.73828125 C-31.49441406 94.65675781 -31.53179688 93.57523437 -31.5703125 92.4609375 C-31.60917572 91.81916061 -31.64803894 91.17738373 -31.68807983 90.51615906 C-31.97590784 82.28471158 -30.22533356 74.45722443 -28.53515625 66.453125 C-28.2154755 64.91719559 -27.89594393 63.38123513 -27.57655334 61.84524536 C-26.90727658 58.64144966 -26.22922047 55.43964923 -25.54614258 52.23876953 C-24.67696354 48.15749558 -23.84082912 44.07019869 -23.01250362 39.98046684 C-22.3647985 36.81098049 -21.69412081 33.64666951 -21.0171833 30.4833107 C-20.69915561 28.97890927 -20.38936084 27.47274074 -20.08836174 25.96483994 C-18.32019096 17.15833595 -16.42201249 10.6063512 -9.5703125 4.4609375 C-8.8808252 3.64544434 -8.19133789 2.82995117 -7.48095703 1.98974609 C-4.90947435 -0.06783435 -3.26504942 -0.02761027 0 0 Z " fill="#044F85" transform="translate(31.5703125,-0.4609375)"/>
<path d="M0 0 C5.28 0 10.56 0 16 0 C16 5.72355832 15.63770185 10.81085163 14.82421875 16.41796875 C14.6931926 17.32580612 14.56216644 18.23364349 14.4271698 19.16899109 C12.74288206 30.32538915 10.27731656 41.30776246 7.8125 52.3125 C7.34368909 54.43278542 6.8755868 56.55322764 6.40820312 58.67382812 C5.28025345 63.78438724 4.14288534 68.89276118 3 74 C0.3941111 74.13494246 -2.20482111 74.23402299 -4.8125 74.3125 C-5.55048828 74.35439453 -6.28847656 74.39628906 -7.04882812 74.43945312 C-9.20703125 74.48828125 -9.20703125 74.48828125 -13 74 C-14.85717773 71.76025391 -14.85717773 71.76025391 -16 69 C-16.41644775 68.26442871 -16.83289551 67.52885742 -17.26196289 66.77099609 C-25.47108372 51.53139813 -25.47108372 51.53139813 -24.3203125 45.34765625 C-22.76192652 42.57015013 -21.14360427 40.34557126 -19 38 C-16.8480563 34.77208445 -16.79913557 33.71599191 -17 30 C-16.34 30.33 -15.68 30.66 -15 31 C-14.375 33.5625 -14.375 33.5625 -14 36 C-13.34 36 -12.68 36 -12 36 C-12 34.35 -12 32.7 -12 31 C-10.5 32.375 -10.5 32.375 -9 34 C-9 34.66 -9 35.32 -9 36 C-8.34 36 -7.68 36 -7 36 C-6.89816406 34.80503906 -6.79632813 33.61007813 -6.69140625 32.37890625 C-5.95954723 25.79217509 -4.41586758 19.38949402 -2.9375 12.9375 C-2.65583984 11.69033203 -2.37417969 10.44316406 -2.08398438 9.15820312 C-1.39367931 6.1044807 -0.69744021 3.05210073 0 0 Z " fill="#F6D40B" transform="translate(77,6)"/>
<path d="M0 0 C1.20140625 -0.01611328 2.4028125 -0.03222656 3.640625 -0.04882812 C4.79046875 -0.04947266 5.9403125 -0.05011719 7.125 -0.05078125 C8.17945313 -0.05376221 9.23390625 -0.05674316 10.3203125 -0.05981445 C13.42817801 0.37199084 14.13437009 0.86077482 16 3.3125 C16.76627239 11.50759711 13.63925699 20.60328172 11.9453125 28.62109375 C11.63990974 30.07932243 11.33464485 31.53758 11.0295105 32.99586487 C10.39279848 36.03150981 9.75168927 39.06618819 9.10791016 42.1003418 C8.28397328 45.98729008 7.4754908 49.87728193 6.67070198 53.7682333 C6.04699255 56.7715629 5.41306996 59.7726686 4.7762413 62.77324104 C4.47357257 64.20739306 4.17458113 65.64232632 3.87936783 67.07803154 C3.46692617 69.07826998 3.03875197 71.07524498 2.60986328 73.07202148 C2.2513176 74.77551003 2.2513176 74.77551003 1.88552856 76.51341248 C0.6629261 80.37796461 -0.90719248 81.66272255 -4.3125 83.6875 C-7.1497871 85.25312864 -7.1497871 85.25312864 -9.55078125 87.89453125 C-13.62654564 91.33414296 -17.77280641 90.87473086 -22.875 90.625 C-23.75414063 90.60244141 -24.63328125 90.57988281 -25.5390625 90.55664062 C-27.69345007 90.49809748 -29.8469531 90.40842783 -32 90.3125 C-35.59727921 83.43226695 -38.76686274 76.75629088 -41 69.3125 C-41.66 69.3125 -42.32 69.3125 -43 69.3125 C-42.42029353 60.81680168 -40.76198299 52.62374051 -39 44.3125 C-38.01 44.3125 -37.02 44.3125 -36 44.3125 C-35.55084229 45.33722412 -35.10168457 46.36194824 -34.63891602 47.41772461 C-32.97704672 51.20749868 -31.31211567 54.99592096 -29.64624023 58.78393555 C-28.92469589 60.42581872 -28.20399036 62.06807079 -27.48413086 63.71069336 C-26.45124368 66.0672116 -25.41537954 68.42240101 -24.37890625 70.77734375 C-24.05596085 71.51589096 -23.73301544 72.25443817 -23.40028381 73.0153656 C-22.08006559 76.40425723 -22.08006559 76.40425723 -20 79.3125 C-17.30764224 79.54928716 -14.63501844 79.73448025 -11.9375 79.875 C-10.79958008 79.93977539 -10.79958008 79.93977539 -9.63867188 80.00585938 C-7.75934562 80.11223633 -5.87969756 80.21289934 -4 80.3125 C-3.87995605 79.22026123 -3.75991211 78.12802246 -3.63623047 77.00268555 C-2.97126498 71.7017759 -1.89911773 66.49931275 -0.8203125 61.26953125 C-0.60688202 60.22407639 -0.39345154 59.17862152 -0.17355347 58.10148621 C0.27721984 55.89670697 0.72946727 53.69222867 1.18310547 51.48803711 C1.86912598 48.1535514 2.55018423 44.818082 3.23046875 41.48242188 C7.24347346 21.86995835 7.24347346 21.86995835 9.52392578 12.67456055 C10.13171819 10.06056836 10.13171819 10.06056836 10 6.3125 C7.3541898 6.145459 4.70835369 5.97884934 2.0625 5.8125 C1.30775391 5.76480469 0.55300781 5.71710937 -0.22460938 5.66796875 C-7.33343732 5.22167462 -9.34933304 6.33749325 -15.1875 10.6875 C-20.06524182 15.64047691 -20 23.70712776 -20 30.3125 C-20.66 30.3125 -21.32 30.3125 -22 30.3125 C-22.33 31.9625 -22.66 33.6125 -23 35.3125 C-24.96706157 32.36190765 -26.23205386 29.59655766 -27.6015625 26.33203125 C-28.09140625 25.16865234 -28.58125 24.00527344 -29.0859375 22.80664062 C-29.59382813 21.59169922 -30.10171875 20.37675781 -30.625 19.125 C-31.14554766 17.88594765 -31.66637783 16.64701395 -32.1875 15.40820312 C-33.46111557 12.37746977 -34.73091963 9.34513521 -36 6.3125 C-40.95 5.9825 -45.9 5.6525 -51 5.3125 C-49 3.3125 -49 3.3125 -45.0859375 3.1171875 C-43.51550649 3.13049624 -41.94513779 3.15436398 -40.375 3.1875 C-39.57320312 3.19652344 -38.77140625 3.20554688 -37.9453125 3.21484375 C-35.96341477 3.23843777 -33.98167019 3.27430935 -32 3.3125 C-29.66666667 7.97916667 -27.33333333 12.64583333 -25 17.3125 C-24.814375 16.3225 -24.62875 15.3325 -24.4375 14.3125 C-20.92695722 1.82209054 -11.31756667 -0.03035828 0 0 Z " fill="#BCD3EC" transform="translate(84,-0.3125)"/>
<path d="M0 0 C3.27036728 -0.14510162 6.53991007 -0.23399373 9.8125 -0.3125 C10.74126953 -0.35439453 11.67003906 -0.39628906 12.62695312 -0.43945312 C15.16841334 -0.48532786 17.49851584 -0.45386799 20 0 C21.93359375 2.04296875 21.93359375 2.04296875 23 5 C23.54351 6.22285532 24.09061906 7.44411507 24.640625 8.6640625 C25.18165971 9.98250631 25.71804751 11.30286567 26.25 12.625 C26.53101563 13.29273438 26.81203125 13.96046875 27.1015625 14.6484375 C29.11916535 19.64250396 29.11916535 19.64250396 28 23 C25.03 16.07 22.06 9.14 19 2 C13.39 2 7.78 2 2 2 C6.29 2.33 10.58 2.66 15 3 C15 3.33 15 3.66 15 4 C10.05 4.33 5.1 4.66 0 5 C-5.28 29.09 -10.56 53.18 -16 78 C-10.39 78 -4.78 78 1 78 C1.11214844 76.60007812 1.22429688 75.20015625 1.33984375 73.7578125 C1.94720572 67.68419278 3.21223575 61.82070141 4.5625 55.875 C4.91344727 54.2971875 4.91344727 54.2971875 5.27148438 52.6875 C5.84249125 50.12379565 6.41873819 47.56139504 7 45 C8.9375 45.375 8.9375 45.375 11 46 C12.57351881 49.14703761 11.41212978 51.68661811 10.6875 55.0625 C10.29111328 56.96708984 10.29111328 56.96708984 9.88671875 58.91015625 C9.59410156 59.92980469 9.30148438 60.94945312 9 62 C8.01 62.495 8.01 62.495 7 63 C6.67 62.01 6.34 61.02 6 60 C5.79246094 61.27875 5.58492187 62.5575 5.37109375 63.875 C2.30417777 81.21033678 2.30417777 81.21033678 -5 87 C-5.33 87.33 -5.66 87.66 -6 88 C-7.56172745 88.08685603 -9.12729344 88.10702219 -10.69140625 88.09765625 C-11.63564453 88.09443359 -12.57988281 88.09121094 -13.55273438 88.08789062 C-14.54595703 88.07951172 -15.53917969 88.07113281 -16.5625 88.0625 C-17.55958984 88.05798828 -18.55667969 88.05347656 -19.58398438 88.04882812 C-22.05604849 88.03700007 -24.52799518 88.02051849 -27 88 C-28.27649077 83.54447472 -27.63976679 80.30694351 -26.59375 75.83203125 C-26.3539164 74.78159889 -26.3539164 74.78159889 -26.10923767 73.70994568 C-25.5822175 71.40851651 -25.04152683 69.11055533 -24.5 66.8125 C-23.74576622 63.56506419 -22.99833948 60.31610178 -22.25390625 57.06640625 C-22.0632106 56.23688446 -21.87251495 55.40736267 -21.67604065 54.55270386 C-20.37640225 48.8358427 -19.22357895 43.10351693 -18.15234375 37.33984375 C-17.85955521 35.7964339 -17.56658948 34.25305766 -17.2734375 32.7097168 C-16.85506755 30.50235456 -16.44529934 28.29528395 -16.06396484 26.08120728 C-14.56206466 17.37981185 -12.83615939 10.99943925 -6 5 C-5.34 4.34 -4.68 3.68 -4 3 C-3.01 3 -2.02 3 -1 3 C-0.67 2.01 -0.34 1.02 0 0 Z " fill="#F6D147" transform="translate(33,2)"/>
<path d="M0 0 C1.48831242 0.00667405 2.97660807 0.01863442 4.46484375 0.03515625 C5.22345703 0.03966797 5.98207031 0.04417969 6.76367188 0.04882812 C8.64326246 0.06064945 10.52281274 0.07858547 12.40234375 0.09765625 C13.0822552 1.63352766 13.74565915 3.17671126 14.40234375 4.72265625 C14.77359375 5.58117187 15.14484375 6.4396875 15.52734375 7.32421875 C16.83489985 11.46870459 17.32374196 14.2610244 15.30761719 18.27978516 C13.70173846 20.93835937 12.00860473 23.51896941 10.27734375 26.09765625 C8.99315109 28.06097655 7.7093072 30.02452502 6.42578125 31.98828125 C5.7615918 32.99439453 5.09740234 34.00050781 4.41308594 35.03710938 C1.19120264 39.94113184 -1.95174491 44.89470069 -5.09765625 49.84765625 C-5.65984863 50.72679687 -6.22204102 51.6059375 -6.80126953 52.51171875 C-10.11498977 57.70475934 -13.31584666 62.94684018 -16.41601562 68.27050781 C-16.80595703 68.8734668 -17.19589844 69.47642578 -17.59765625 70.09765625 C-17.92765625 70.09765625 -18.25765625 70.09765625 -18.59765625 70.09765625 C-17.91236955 62.29043295 -16.36383561 54.77942253 -14.69140625 47.12890625 C-14.40347969 45.79901256 -14.11584641 44.46905535 -13.82849121 43.13903809 C-13.2295403 40.37167595 -12.62743314 37.60502585 -12.02294922 34.83886719 C-11.24720152 31.28799458 -10.47895803 27.73554731 -9.71294403 24.18256378 C-9.12207612 21.44543542 -8.5275931 18.70910241 -7.93196106 15.9730072 C-7.50851424 14.02510351 -7.08792047 12.07658032 -6.6673584 10.12805176 C-6.41039185 8.9559314 -6.15342529 7.78381104 -5.88867188 6.57617188 C-5.66296509 5.53964478 -5.4372583 4.50311768 -5.20471191 3.43518066 C-4.23441248 -0.30104774 -4.12687969 0.11202171 0 0 Z " fill="#F5CD07" transform="translate(36.59765625,5.90234375)"/>
<path d="M0 0 C2.29648357 2.89585905 4.04347557 5.8172031 5.6875 9.125 C6.12449219 9.99382812 6.56148437 10.86265625 7.01171875 11.7578125 C8 14 8 14 8 16 C12.66688923 17.16672231 17.21991244 17.21896047 22 17.25 C22.7940625 17.270625 23.588125 17.29125 24.40625 17.3125 C30.65784758 17.35417732 33.78500068 16.06852356 38.421875 11.73828125 C39.19015625 10.93777344 39.9584375 10.13726562 40.75 9.3125 C42.15021264 7.85896801 43.56252152 6.4166885 45 5 C45.33 5 45.66 5 46 5 C45.2072456 18.5861702 45.2072456 18.5861702 40.49145508 23.60571289 C34.52205297 28.62979527 29.36087177 28.88656781 21.75 28.6875 C20.67492188 28.70232422 19.59984375 28.71714844 18.4921875 28.73242188 C10.76477237 28.65052284 10.76477237 28.65052284 7.4375 25.8203125 C6.963125 24.88960937 6.48875 23.95890625 6 23 C5.26523438 21.56720703 5.26523438 21.56720703 4.515625 20.10546875 C4.09796875 19.14253906 3.6803125 18.17960937 3.25 17.1875 C2.82203125 16.21167969 2.3940625 15.23585938 1.953125 14.23046875 C1.63859375 13.49441406 1.3240625 12.75835937 1 12 C0.88785156 12.56847656 0.77570312 13.13695313 0.66015625 13.72265625 C-0.88010239 19.75281918 -3.28797771 22.89447639 -8.26098633 26.57104492 C-13.29409842 29.1968409 -18.32109397 28.85208728 -23.875 28.625 C-25.56496094 28.61533203 -25.56496094 28.61533203 -27.2890625 28.60546875 C-35.41828839 28.44016152 -35.41828839 28.44016152 -37.82202148 26.62133789 C-39.49627852 24.31693561 -39.29696577 22.62212151 -39.1875 19.8125 C-39.16042969 18.91144531 -39.13335937 18.01039062 -39.10546875 17.08203125 C-39.07066406 16.39496094 -39.03585938 15.70789063 -39 15 C-38.38125 15.32355469 -37.7625 15.64710937 -37.125 15.98046875 C-32.72886622 17.4147074 -28.59466152 17.32914732 -24 17.3125 C-23.11054688 17.32861328 -22.22109375 17.34472656 -21.3046875 17.36132812 C-14.24356253 17.36659762 -10.42555198 15.6677219 -5.3125 10.75 C-1.97198876 7.34413093 -0.85484791 4.65417198 0 0 Z " fill="#0032A3" transform="translate(40,78)"/>
<path d="M0 0 C1.59134766 0.00580078 1.59134766 0.00580078 3.21484375 0.01171875 C4.86806641 0.04845703 4.86806641 0.04845703 6.5546875 0.0859375 C8.21951172 0.08787109 8.21951172 0.08787109 9.91796875 0.08984375 C18.14882235 0.18007235 18.14882235 0.18007235 20.4296875 2.4609375 C14.1596875 2.7909375 7.8896875 3.1209375 1.4296875 3.4609375 C1.0996875 4.1209375 0.7696875 4.7809375 0.4296875 5.4609375 C-0.653125 6.04875 -0.653125 6.04875 -1.7578125 6.6484375 C-7.87761201 10.5923083 -10.53697491 14.22724537 -12.1880188 21.32084656 C-13.02907828 25.35584995 -13.77462425 29.40517861 -14.5078125 33.4609375 C-15.00797642 36.08682118 -15.51615352 38.71107399 -16.02479553 41.33532715 C-16.36823952 43.10966377 -16.70916365 44.88448996 -17.04759216 46.65979004 C-18.9182058 56.43090796 -21.14855941 66.1118725 -23.40014648 75.80078125 C-24.67835986 81.3431205 -25.91359317 86.80816348 -26.5703125 92.4609375 C-25.5803125 92.7909375 -24.5903125 93.1209375 -23.5703125 93.4609375 C-23.5703125 93.7909375 -23.5703125 94.1209375 -23.5703125 94.4609375 C-26.4453125 94.5859375 -26.4453125 94.5859375 -29.5703125 94.4609375 C-31.94926516 92.08198484 -31.86714351 91.58344024 -31.88500977 88.33642578 C-31.72560364 80.9030665 -30.06526652 73.69920187 -28.53515625 66.453125 C-28.2154755 64.91719559 -27.89594393 63.38123513 -27.57655334 61.84524536 C-26.90727658 58.64144966 -26.22922047 55.43964923 -25.54614258 52.23876953 C-24.67696354 48.15749558 -23.84082912 44.07019869 -23.01250362 39.98046684 C-22.3647985 36.81098049 -21.69412081 33.64666951 -21.0171833 30.4833107 C-20.69915561 28.97890927 -20.38936084 27.47274074 -20.08836174 25.96483994 C-18.32019096 17.15833595 -16.42201249 10.6063512 -9.5703125 4.4609375 C-8.8808252 3.64544434 -8.19133789 2.82995117 -7.48095703 1.98974609 C-4.90947435 -0.06783435 -3.26504942 -0.02761027 0 0 Z " fill="#1085CB" transform="translate(31.5703125,-0.4609375)"/>
<path d="M0 0 C3.18086186 2.65796414 4.46819633 5.82347714 6.13671875 9.56640625 C6.42102249 10.20110336 6.70532623 10.83580048 6.99824524 11.48973083 C7.59561888 12.82722307 8.18964394 14.16621532 8.78051758 15.5065918 C9.68734704 17.56215327 10.60547742 19.61237482 11.52539062 21.66210938 C16 31.7097137 16 31.7097137 16 34 C21.61 34.33 27.22 34.66 33 35 C27.25 41.875 27.25 41.875 25 43 C23.55151418 43.08342159 22.09929131 43.10732861 20.6484375 43.09765625 C19.79765625 43.09443359 18.946875 43.09121094 18.0703125 43.08789062 C17.18085937 43.07951172 16.29140625 43.07113281 15.375 43.0625 C14.02921875 43.05573242 14.02921875 43.05573242 12.65625 43.04882812 C10.43743352 43.03702591 8.21874982 43.02056155 6 43 C4.52091811 40.08620867 3.05443821 37.16719577 1.60546875 34.23828125 C0.64894608 32.30894477 -0.32236128 30.38665774 -1.32421875 28.48046875 C-3.90538312 23.3090833 -4.32891039 19.65709769 -3 14 C-2.7525 12.80761719 -2.505 11.61523438 -2.25 10.38671875 C-1.52497212 6.91843633 -0.77222841 3.45802912 0 0 Z " fill="#E68005" transform="translate(46,47)"/>
<path d="M0 0 C0.66 0 1.32 0 2 0 C0.47902364 11.58832703 -2.07857906 22.91588239 -4.625 34.3125 C-5.04986152 36.22843088 -5.47434354 38.14444595 -5.8984375 40.06054688 C-6.927923 44.70801263 -7.96252356 49.35431187 -9 54 C-11.62527189 54.05382106 -14.24944713 54.09358313 -16.875 54.125 C-17.62136719 54.14175781 -18.36773437 54.15851563 -19.13671875 54.17578125 C-21.09194461 54.1933959 -23.04742021 54.10320189 -25 54 C-25.66 53.34 -26.32 52.68 -27 52 C-26.69513509 47.64435586 -25.52589618 44.71671458 -23.15625 41.09375 C-22.57327148 40.19092285 -21.99029297 39.2880957 -21.38964844 38.35791016 C-20.76606445 37.4147998 -20.14248047 36.47168945 -19.5 35.5 C-18.86868164 34.52981934 -18.23736328 33.55963867 -17.58691406 32.56005859 C-16.31987193 30.61297473 -15.04941318 28.66810952 -13.77539062 26.72558594 C-12.20443568 24.31385037 -10.66317271 21.88777869 -9.140625 19.4453125 C-8.73005859 18.78982422 -8.31949219 18.13433594 -7.89648438 17.45898438 C-6.81986922 15.73676694 -5.74578384 14.01296879 -4.671875 12.2890625 C-4.12015625 11.53367187 -3.5684375 10.77828125 -3 10 C-2.34 10 -1.68 10 -1 10 C-0.67 6.7 -0.34 3.4 0 0 Z " fill="#F0C512" transform="translate(89,26)"/>
<path d="M0 0 C1.47608275 2.95216549 0.54126107 4.86749997 -0.17163086 8.06689453 C-0.45199692 9.34227081 -0.73236298 10.61764709 -1.02122498 11.93167114 C-1.17493498 12.61576176 -1.32864498 13.29985237 -1.48701286 14.004673 C-1.96823914 16.1479347 -2.44068465 18.29296192 -2.91078186 20.43869019 C-4.08124443 25.77323583 -5.26522686 31.10475686 -6.45184326 36.43572998 C-7.45230667 40.9311933 -8.44607945 45.42802674 -9.43051338 49.92702866 C-9.89370971 52.03109248 -10.36661985 54.13281886 -10.83982849 56.23464966 C-11.12672221 57.54190034 -11.41312902 58.84925801 -11.69897461 60.15673828 C-12.07656166 61.85311935 -12.07656166 61.85311935 -12.46177673 63.58377075 C-13.20750571 67.74069277 -13.20750571 67.74069277 -13 75 C-6.73 75.33 -0.46 75.66 6 76 C1 82 1 82 -1.49536133 82.68115234 C-2.3489624 82.64973145 -3.20256348 82.61831055 -4.08203125 82.5859375 C-5.01337891 82.56660156 -5.94472656 82.54726562 -6.90429688 82.52734375 C-7.86400391 82.47707031 -8.82371094 82.42679687 -9.8125 82.375 C-10.79154297 82.34792969 -11.77058594 82.32085937 -12.77929688 82.29296875 C-15.18846621 82.22245648 -17.59308819 82.12398568 -20 82 C-21.27649077 77.54447472 -20.63976679 74.30694351 -19.59375 69.83203125 C-19.43381561 69.13169769 -19.27388123 68.43136414 -19.10910034 67.70980835 C-18.58201233 65.40845458 -18.04132009 63.1105441 -17.5 60.8125 C-16.74711777 57.56635448 -16.00118032 54.31864899 -15.2578125 51.0703125 C-15.0673233 50.24099716 -14.87683411 49.41168182 -14.68057251 48.55723572 C-13.37745577 42.82613344 -12.20901619 37.07948284 -11.1171875 31.3046875 C-10.819698 29.75674753 -10.52217259 28.20881447 -10.22460938 26.66088867 C-9.799665 24.44446104 -9.38217051 22.22797909 -8.98852539 20.00576782 C-7.54629337 11.87827697 -6.29194542 5.75439826 0 0 Z " fill="#E28A0E" transform="translate(26,8)"/>
<path d="M0 0 C1.74506836 0.00966797 1.74506836 0.00966797 3.52539062 0.01953125 C4.74033203 0.03628906 5.95527344 0.05304687 7.20703125 0.0703125 C8.43357422 0.07933594 9.66011719 0.08835938 10.92382812 0.09765625 C13.9559242 0.12125233 16.98763063 0.15417409 20.01953125 0.1953125 C20.51453125 1.1853125 20.51453125 1.1853125 21.01953125 2.1953125 C10.62453125 2.6903125 10.62453125 2.6903125 0.01953125 3.1953125 C0.01953125 3.8553125 0.01953125 4.5153125 0.01953125 5.1953125 C-0.68171875 5.6078125 -1.38296875 6.0203125 -2.10546875 6.4453125 C-7.08329701 9.47529492 -10.31851624 11.64475613 -11.8046875 17.37109375 C-12.47784681 21.66308113 -12.98046875 25.84875822 -12.98046875 30.1953125 C-13.64046875 30.1953125 -14.30046875 30.1953125 -14.98046875 30.1953125 C-15.31046875 31.8453125 -15.64046875 33.4953125 -15.98046875 35.1953125 C-17.94753032 32.24472015 -19.21252261 29.47937016 -20.58203125 26.21484375 C-21.071875 25.05146484 -21.56171875 23.88808594 -22.06640625 22.68945312 C-22.57429688 21.47451172 -23.0821875 20.25957031 -23.60546875 19.0078125 C-24.12601641 17.76876015 -24.64684658 16.52982645 -25.16796875 15.29101562 C-26.44158432 12.26028227 -27.71138838 9.22794771 -28.98046875 6.1953125 C-33.93046875 5.8653125 -38.88046875 5.5353125 -43.98046875 5.1953125 C-41.98046875 3.1953125 -41.98046875 3.1953125 -38.06640625 3 C-36.49597524 3.01330874 -34.92560654 3.03717648 -33.35546875 3.0703125 C-32.55367187 3.07933594 -31.751875 3.08835938 -30.92578125 3.09765625 C-28.94388352 3.12125027 -26.96213894 3.15712185 -24.98046875 3.1953125 C-22.64713542 7.86197917 -20.31380208 12.52864583 -17.98046875 17.1953125 C-17.79484375 16.2053125 -17.60921875 15.2153125 -17.41796875 14.1953125 C-15.11879057 6.01490319 -8.40700539 -0.08201956 0 0 Z " fill="#289DE7" transform="translate(76.98046875,-0.1953125)"/>
<path d="M0 0 C0.66 0.33 1.32 0.66 2 1 C4.54615009 1.23172827 7.07396225 1.41894529 9.625 1.5625 C10.33140625 1.60568359 11.0378125 1.64886719 11.765625 1.69335938 C13.51018537 1.79944751 15.25506697 1.90022889 17 2 C18.23940347 6.35843207 17.66253286 9.45636989 16.5625 13.8125 C16.13130859 15.55466797 16.13130859 15.55466797 15.69140625 17.33203125 C15.46324219 18.21246094 15.23507813 19.09289062 15 20 C14.67 20 14.34 20 14 20 C14.14383922 18.47897677 14.29019014 16.95819103 14.4375 15.4375 C14.51871094 14.59058594 14.59992188 13.74367188 14.68359375 12.87109375 C15.04721423 9.57157462 15.53055253 6.28613229 16 3 C10.72 3 5.44 3 0 3 C-0.10183594 4.19496094 -0.20367187 5.38992188 -0.30859375 6.62109375 C-1.04045277 13.20782491 -2.58413242 19.61050598 -4.0625 26.0625 C-4.48499023 27.93325195 -4.48499023 27.93325195 -4.91601562 29.84179688 C-5.60632682 32.89554639 -6.30108982 35.9482092 -7 39 C-7.66 39 -8.32 39 -9 39 C-13.24277518 30.47498196 -14.95198387 23.20669893 -13.06640625 13.765625 C-11.12603014 8.73344081 -7.32525982 5.12251378 -3 2 C-2.01 2 -1.02 2 0 2 C0 1.34 0 0.68 0 0 Z " fill="#E0D088" transform="translate(77,3)"/>
<path d="M0 0 C6.27 0 12.54 0 19 0 C20.26423418 3.79270254 19.60553966 5.79880237 18.76831055 9.70288086 C18.55389313 10.71802513 18.55389313 10.71802513 18.33514404 11.75367737 C17.8600885 13.9924667 17.37368416 16.22861722 16.88671875 18.46484375 C16.55324841 20.02027759 16.22031405 21.57582642 15.88789368 23.13148499 C15.18908785 26.39335287 14.48485621 29.65398727 13.77661133 32.91381836 C12.86970502 37.08938732 11.97459878 41.26737625 11.08334637 45.446311 C10.3968942 48.65996998 9.70501986 51.87244227 9.01142311 55.08456612 C8.67943867 56.62440883 8.34894162 58.16457301 8.01996422 59.70506096 C7.5586365 61.86048675 7.09023585 64.014255 6.61987305 66.16772461 C6.35482468 67.39333603 6.08977631 68.61894745 5.81669617 69.88169861 C5.12354374 72.52828648 4.34941752 74.63828451 3 77 C2.34 77 1.68 77 1 77 C1.70719501 70.56547467 2.87235612 64.2946511 4.1796875 57.95703125 C4.39311798 56.91157639 4.60654846 55.86612152 4.82644653 54.78898621 C5.27721984 52.58420697 5.72946727 50.37972867 6.18310547 48.17553711 C6.86912598 44.8410514 7.55018423 41.505582 8.23046875 38.16992188 C12.24347346 18.55745835 12.24347346 18.55745835 14.52392578 9.36206055 C15.13171819 6.74806836 15.13171819 6.74806836 15 3 C9.72 2.67 4.44 2.34 -1 2 C-0.67 1.34 -0.34 0.68 0 0 Z " fill="#0F73B6" transform="translate(79,3)"/>
<path d="M0 0 C0.33 0 0.66 0 1 0 C0.88402331 14.64602417 -1.71542372 28.60458209 -4.76293945 42.89916992 C-5.56781327 46.71267436 -6.32426875 50.53393001 -7.08007812 54.35742188 C-7.59343005 56.80530255 -8.10960519 59.25259324 -8.62890625 61.69921875 C-8.84696426 62.83155441 -9.06502228 63.96389008 -9.28968811 65.13053894 C-11.01328947 72.87696167 -13.63957273 76.39666998 -20 81 C-20.95762176 81.93822684 -21.89801231 82.89468307 -22.8125 83.875 C-26.91952643 87.86468282 -31.50083761 87.18322801 -36.875 87.1875 C-37.67808594 87.19974609 -38.48117188 87.21199219 -39.30859375 87.22460938 C-43.66225649 87.23536801 -47.0349899 87.03066307 -51 85 C-50.505 84.01 -50.505 84.01 -50 83 C-49.34 83.33 -48.68 83.66 -48 84 C-46.3325394 84.08426094 -44.66174813 84.10725143 -42.9921875 84.09765625 C-42.00605469 84.09443359 -41.01992188 84.09121094 -40.00390625 84.08789062 C-38.45509766 84.07532227 -38.45509766 84.07532227 -36.875 84.0625 C-35.83472656 84.05798828 -34.79445313 84.05347656 -33.72265625 84.04882812 C-31.14838038 84.03701952 -28.57421854 84.02055075 -26 84 C-25.505 82.515 -25.505 82.515 -25 81 C-23.0156317 79.39625407 -20.93182951 78.01685012 -18.8125 76.59765625 C-16.66166241 74.70176708 -16.4898427 73.77067278 -16 71 C-15.6934549 70.26791824 -15.38690979 69.53583649 -15.07107544 68.78157043 C-13.87233823 65.66846386 -13.17446141 62.63857563 -12.48779297 59.3737793 C-12.28252991 58.40708061 -12.28252991 58.40708061 -12.07312012 57.42085266 C-11.62520469 55.30618438 -11.18365912 53.19024079 -10.7421875 51.07421875 C-10.43155569 49.60154563 -10.1205249 48.12895662 -9.80911255 46.65644836 C-8.99302579 42.79232383 -8.18234615 38.92708438 -7.37280273 35.06158447 C-6.5447785 31.11263174 -5.71162422 27.16476199 -4.87890625 23.21679688 C-3.24759293 15.47891291 -1.62199263 7.73984308 0 0 Z " fill="#074FAD" transform="translate(99,9)"/>
<path d="M0 0 C3.18086186 2.65796414 4.46819633 5.82347714 6.13671875 9.56640625 C6.42102249 10.20110336 6.70532623 10.83580048 6.99824524 11.48973083 C7.59561888 12.82722307 8.18964394 14.16621532 8.78051758 15.5065918 C9.68734704 17.56215327 10.60547742 19.61237482 11.52539062 21.66210938 C16 31.7097137 16 31.7097137 16 34 C21.61 34.33 27.22 34.66 33 35 C32.505 35.99 32.505 35.99 32 37 C28.93372294 37.21665549 25.88272762 37.37459318 22.8125 37.5 C21.51602539 37.60054687 21.51602539 37.60054687 20.19335938 37.703125 C17.59224273 37.78285271 15.50505225 37.71568904 13 37 C10.55978214 34.70168196 9.3662829 32.02771019 8 29 C7.59273682 28.21189941 7.18547363 27.42379883 6.76586914 26.61181641 C5.48802488 24.12159478 4.30103976 21.60220429 3.125 19.0625 C2.70992187 18.22009766 2.29484375 17.37769531 1.8671875 16.50976562 C-0.92989248 10.45408747 -1.28328196 6.55532174 0 0 Z " fill="#F6D312" transform="translate(46,47)"/>
<path d="M0 0 C0.99 0 1.98 0 3 0 C3.99 2.31 4.98 4.62 6 7 C17.27951705 8.1781265 17.27951705 8.1781265 27.90234375 5.44140625 C29.9481583 3.57359071 29.9481583 3.57359071 31.52734375 1.53125 C32.01332031 1.0259375 32.49929687 0.520625 33 0 C34.32 0 35.64 0 37 0 C35.50958227 3.79379058 33.30937488 5.68343758 30 8 C29.34 8 28.68 8 28 8 C27.67 9.32 27.34 10.64 27 12 C23.41694008 12.11627503 19.83436583 12.1872736 16.25 12.25 C15.23421875 12.28351563 14.2184375 12.31703125 13.171875 12.3515625 C5.64875466 12.45055093 5.64875466 12.45055093 2.37890625 10.1796875 C0.69303926 7.51477594 -0.26694855 5.06548787 -1 2 C-0.67 1.34 -0.34 0.68 0 0 Z " fill="#05578B" transform="translate(46,82)"/>
<path d="M0 0 C0.66 0.33 1.32 0.66 2 1 C2.40729228 3.32156597 2.74438677 5.6568787 3 8 C3.66 8 4.32 8 5 8 C5.83790789 9.78953185 6.67019396 11.58169695 7.5 13.375 C7.9640625 14.37273437 8.428125 15.37046875 8.90625 16.3984375 C10 19 10 19 10 21 C9.34 21 8.68 21 8 21 C8.53725895 24.37705625 9.11064623 27.696686 10 31 C7.39954125 28.6975881 6.15260817 26.50103323 4.8125 23.3125 C4.46832031 22.50425781 4.12414063 21.69601563 3.76953125 20.86328125 C3.51558594 20.24839844 3.26164062 19.63351563 3 19 C2.01 20.98 1.02 22.96 0 25 C-0.33 24.34 -0.66 23.68 -1 23 C-0.67 22.34 -0.34 21.68 0 21 C-1.32 20.67 -2.64 20.34 -4 20 C-2.68 13.4 -1.36 6.8 0 0 Z " fill="#0E5F97" transform="translate(38,61)"/>
<path d="M0 0 C3.27036728 -0.14510162 6.53991007 -0.23399373 9.8125 -0.3125 C10.74126953 -0.35439453 11.67003906 -0.39628906 12.62695312 -0.43945312 C15.16841334 -0.48532786 17.49851584 -0.45386799 20 0 C21.93359375 2.04296875 21.93359375 2.04296875 23 5 C23.54351 6.22285532 24.09061906 7.44411507 24.640625 8.6640625 C25.18165971 9.98250631 25.71804751 11.30286567 26.25 12.625 C26.53101563 13.29273438 26.81203125 13.96046875 27.1015625 14.6484375 C29.11916535 19.64250396 29.11916535 19.64250396 28 23 C25.03 16.07 22.06 9.14 19 2 C13.39 2 7.78 2 2 2 C6.29 2.33 10.58 2.66 15 3 C15 3.33 15 3.66 15 4 C10.05 4.33 5.1 4.66 0 5 C-4.62 26.12 -9.24 47.24 -14 69 C-14.33 69 -14.66 69 -15 69 C-14.43348426 61.79138936 -13.28602234 54.83842863 -11.78515625 47.76953125 C-11.5693541 46.73487228 -11.35355194 45.70021332 -11.13121033 44.63420105 C-10.67726228 42.46305475 -10.22081141 40.29243037 -9.76196289 38.12231445 C-9.06251889 34.8125894 -8.37145449 31.50119725 -7.68164062 28.18945312 C-7.23746958 26.07020965 -6.79282439 23.9510655 -6.34765625 21.83203125 C-6.14237808 20.84958939 -5.93709991 19.86714752 -5.7256012 18.85493469 C-4.66143456 13.83661679 -3.48438365 8.91099517 -2 4 C-2.66 3.67 -3.32 3.34 -4 3 C-3.01 3 -2.02 3 -1 3 C-0.67 2.01 -0.34 1.02 0 0 Z " fill="#E9E2BE" transform="translate(33,2)"/>
<path d="M0 0 C1.39456452 0.00667256 2.78911118 0.01863093 4.18359375 0.03515625 C4.89451172 0.03966797 5.60542969 0.04417969 6.33789062 0.04882812 C8.09899388 0.06064761 9.86005411 0.07858362 11.62109375 0.09765625 C11.29109375 0.75765625 10.96109375 1.41765625 10.62109375 2.09765625 C9.30109375 1.76765625 7.98109375 1.43765625 6.62109375 1.09765625 C6.21117187 2.19255371 6.21117187 2.19255371 5.79296875 3.30957031 C3.90792231 7.79440997 1.22518241 11.75112999 -1.37890625 15.84765625 C-1.92546875 16.72292969 -2.47203125 17.59820313 -3.03515625 18.5 C-3.56109375 19.33144531 -4.08703125 20.16289062 -4.62890625 21.01953125 C-5.1084375 21.7784668 -5.58796875 22.53740234 -6.08203125 23.31933594 C-7.37890625 25.09765625 -7.37890625 25.09765625 -9.37890625 26.09765625 C-8.57259476 21.95059413 -7.75782784 17.80523887 -6.94140625 13.66015625 C-6.71130859 12.47615234 -6.48121094 11.29214844 -6.24414062 10.07226562 C-6.02177734 8.94755859 -5.79941406 7.82285156 -5.5703125 6.6640625 C-5.36607666 5.62193604 -5.16184082 4.57980957 -4.95141602 3.50610352 C-4.07200307 -0.19343111 -3.99990117 0.11560408 0 0 Z " fill="#F6D40C" transform="translate(36.37890625,5.90234375)"/>
<path d="M0 0 C1.57043101 0.01330874 3.14079971 0.03717648 4.7109375 0.0703125 C5.51273438 0.07933594 6.31453125 0.08835938 7.140625 0.09765625 C9.12252273 0.12125027 11.10426731 0.15712185 13.0859375 0.1953125 C24.20300575 21.57792887 24.20300575 21.57792887 23.0859375 30.1953125 C22.4259375 30.8553125 21.7659375 31.5153125 21.0859375 32.1953125 C17.1259375 22.6253125 13.1659375 13.0553125 9.0859375 3.1953125 C4.1359375 2.8653125 -0.8140625 2.5353125 -5.9140625 2.1953125 C-3.9140625 0.1953125 -3.9140625 0.1953125 0 0 Z " fill="#1F91DC" transform="translate(38.9140625,2.8046875)"/>
<path d="M0 0 C1.9375 0.375 1.9375 0.375 4 1 C5.57351881 4.14703761 4.41212978 6.68661811 3.6875 10.0625 C3.42324219 11.33222656 3.15898438 12.60195313 2.88671875 13.91015625 C2.59410156 14.92980469 2.30148438 15.94945312 2 17 C1.34 17.33 0.68 17.66 0 18 C-0.33 17.01 -0.66 16.02 -1 15 C-1.11069824 15.55985596 -1.22139648 16.11971191 -1.33544922 16.6965332 C-1.84172841 19.23662177 -2.35824231 21.77452339 -2.875 24.3125 C-3.13603516 25.63411133 -3.13603516 25.63411133 -3.40234375 26.98242188 C-3.66337891 28.25375977 -3.66337891 28.25375977 -3.9296875 29.55078125 C-4.08679199 30.33106689 -4.24389648 31.11135254 -4.40576172 31.9152832 C-5 34 -5 34 -7 37 C-9.04711914 37.35644531 -9.04711914 37.35644531 -11.53515625 37.328125 C-12.87223633 37.32039063 -12.87223633 37.32039063 -14.23632812 37.3125 C-15.6352832 37.2815625 -15.6352832 37.2815625 -17.0625 37.25 C-18.46725586 37.24226563 -18.46725586 37.24226563 -19.90039062 37.234375 C-26.84609661 37.15390339 -26.84609661 37.15390339 -28 36 C-28.32102765 30.00748387 -27.5019035 24.79305637 -26 19 C-25.67 19 -25.34 19 -25 19 C-24.88448702 24.42910999 -25.3364545 29.60869279 -26 35 C-22.37 35 -18.74 35 -15 35 C-15 34.67 -15 34.34 -15 34 C-10.545 33.505 -10.545 33.505 -6 33 C-5.88785156 31.60007812 -5.77570312 30.20015625 -5.66015625 28.7578125 C-5.05279428 22.68419278 -3.78776425 16.82070141 -2.4375 10.875 C-2.20353516 9.823125 -1.96957031 8.77125 -1.72851562 7.6875 C-1.15750875 5.12379565 -0.58126181 2.56139504 0 0 Z " fill="#EFCB56" transform="translate(40,47)"/>
<path d="M0 0 C1.34801838 2.69603677 0.74601329 3.97886071 0.10375977 6.90869141 C-0.11654404 7.92959869 -0.33684784 8.95050598 -0.56382751 10.00234985 C-0.80960037 11.10759003 -1.05537323 12.2128302 -1.30859375 13.3515625 C-1.55416519 14.4807309 -1.79973663 15.60989929 -2.05274963 16.77328491 C-2.84128123 20.39195244 -3.63928231 24.008458 -4.4375 27.625 C-4.97262854 30.07278048 -5.50714186 32.52069554 -6.04101562 34.96875 C-7.35353299 40.98074858 -8.67383812 46.99099736 -10 53 C-10.33 53 -10.66 53 -11 53 C-11.39395561 46.43407314 -10.17688469 40.65478897 -8.65625 34.26953125 C-8.07860044 31.39159861 -7.86806131 28.91914349 -8 26 C-8.33 26 -8.66 26 -9 26 C-7.82628003 7.3418998 -7.82628003 7.3418998 -2.3125 1.8125 C-1.549375 1.214375 -0.78625 0.61625 0 0 Z " fill="#EE9A0B" transform="translate(26,8)"/>
<path d="M0 0 C0.66 0 1.32 0 2 0 C1.43773683 6.85860281 0.43990251 13.50730534 -0.9609375 20.2421875 C-1.15217194 21.17298126 -1.34340637 22.10377502 -1.54043579 23.06277466 C-1.94284904 25.01116518 -2.34802185 26.95898766 -2.75585938 28.90625 C-3.37725254 31.88580084 -3.98187557 34.868456 -4.5859375 37.8515625 C-4.9807539 39.75281563 -5.37655249 41.65386512 -5.7734375 43.5546875 C-6.04080215 44.88752274 -6.04080215 44.88752274 -6.31356812 46.24728394 C-7.92907883 53.81889149 -7.92907883 53.81889149 -11 57 C-11.27000142 51.11555732 -10.26652372 46.01529502 -8.875 40.3125 C-8.41876689 38.37933159 -7.96443979 36.44571265 -7.51171875 34.51171875 C-7.26856934 33.4757959 -7.02541992 32.43987305 -6.77490234 31.37255859 C-5.34254128 25.13858388 -4.01906828 18.88113702 -2.6875 12.625 C-2.42114746 11.37630127 -2.15479492 10.12760254 -1.88037109 8.84106445 C-1.25238139 5.89429597 -0.62554555 2.94728813 0 0 Z " fill="#F7D511" transform="translate(28,8)"/>
<path d="M0 0 C3.35617545 2.71714544 4.68614176 6.38653475 6.3203125 10.2578125 C6.62444061 10.96146942 6.92856873 11.66512634 7.24191284 12.3901062 C8.2097029 14.63223248 9.16777918 16.87834361 10.125 19.125 C11.09100299 21.37804722 12.05901318 23.63020223 13.0295105 25.88131714 C13.63237711 27.28117545 14.23233091 28.68229239 14.82913208 30.08474731 C16.04400041 33.27372314 16.04400041 33.27372314 18 36 C20.52596259 36.23653523 23.03107207 36.42173692 25.5625 36.5625 C26.27341797 36.60568359 26.98433594 36.64886719 27.71679688 36.69335938 C29.47761912 36.79971777 31.2387832 36.90038846 33 37 C33 37.66 33 38.32 33 39 C30.56183415 39.0809723 28.12635616 39.14046972 25.6875 39.1875 C24.99720703 39.21263672 24.30691406 39.23777344 23.59570312 39.26367188 C18.47524162 39.33788146 18.47524162 39.33788146 16.48632812 37.92382812 C14.35425309 35.16417778 13.03676557 32.09861723 11.64453125 28.92578125 C11.33803146 28.2419487 11.03153168 27.55811615 10.71574402 26.8535614 C9.74152584 24.67602803 8.77691516 22.49439017 7.8125 20.3125 C7.15232253 18.83240121 6.49152226 17.35258004 5.83007812 15.87304688 C4.21162487 12.25234155 2.6062394 8.62623928 1 5 C-0.65 11.93 -2.3 18.86 -4 26 C-4.33 26 -4.66 26 -5 26 C-3.46212121 3.46212121 -3.46212121 3.46212121 0 0 Z " fill="#FBEDC5" transform="translate(46,43)"/>
<path d="M0 0 C1.36395986 2.72791973 0.69853765 4.0598646 0.00390625 7.0078125 C-0.22490234 7.99394531 -0.45371094 8.98007812 -0.68945312 9.99609375 C-0.93630859 11.02863281 -1.18316406 12.06117187 -1.4375 13.125 C-1.68048828 14.16527344 -1.92347656 15.20554687 -2.17382812 16.27734375 C-2.77640708 18.8530734 -3.38537859 21.42712212 -4 24 C-4.66 24 -5.32 24 -6 24 C-8.49560727 17.76098183 -8.23351972 12.35694075 -6 6 C-4.18607292 3.49505309 -2.43768776 1.96074885 0 0 Z " fill="#E7AC13" transform="translate(71,8)"/>
<path d="M0 0 C2.00171717 3.00257576 3.36453259 5.90048342 4.8203125 9.19921875 C5.08383514 9.79426712 5.34735779 10.38931549 5.61886597 11.00239563 C6.45687242 12.89628151 7.29098319 14.7918543 8.125 16.6875 C8.693754 17.9747227 9.26276155 19.26183341 9.83203125 20.54882812 C11.22385147 23.69811626 12.61224996 26.8489162 14 30 C20.6 30.33 27.2 30.66 34 31 C33.67 31.66 33.34 32.32 33 33 C29.93372294 33.21665549 26.88272762 33.37459318 23.8125 33.5 C22.51602539 33.60054687 22.51602539 33.60054687 21.19335938 33.703125 C14.95657524 33.8942908 14.95657524 33.8942908 12.44018555 31.54174805 C11.07025271 29.4242393 10.02747648 27.30310177 9 25 C8.5980542 24.19062988 8.1961084 23.38125977 7.78198242 22.54736328 C6.52900808 19.99104874 5.35176093 17.41029353 4.1875 14.8125 C3.78080078 13.93658203 3.37410156 13.06066406 2.95507812 12.15820312 C2.57158203 11.30806641 2.18808594 10.45792969 1.79296875 9.58203125 C1.27512817 8.44084839 1.27512817 8.44084839 0.74682617 7.27661133 C-0.08676046 4.73552098 -0.13452227 2.65732766 0 0 Z " fill="#F4D053" transform="translate(45,51)"/>
<path d="M0 0 C1.16660156 0.00322266 2.33320312 0.00644531 3.53515625 0.00976562 C4.75847656 0.01814453 5.98179688 0.02652344 7.2421875 0.03515625 C8.47324219 0.03966797 9.70429687 0.04417969 10.97265625 0.04882812 C14.02088142 0.06064295 17.06901064 0.07711597 20.1171875 0.09765625 C20.6121875 1.08765625 20.6121875 1.08765625 21.1171875 2.09765625 C11.2171875 2.59265625 11.2171875 2.59265625 1.1171875 3.09765625 C1.1171875 2.43765625 1.1171875 1.77765625 1.1171875 1.09765625 C-5.79580094 2.24982099 -9.49015792 5.75523852 -13.8828125 11.09765625 C-15.13790548 13.08907044 -16.00526608 14.9037902 -16.8828125 17.09765625 C-17.8828125 15.09765625 -17.8828125 15.09765625 -16.8828125 11.91015625 C-13.4939292 4.39156399 -8.14632099 -0.03954525 0 0 Z " fill="#1AABFB" transform="translate(76.8828125,-0.09765625)"/>
<path d="M0 0 C1.32 0 2.64 0 4 0 C1.87726992 4.86194956 -1.29724957 7.60847935 -6 10 C-9.7113921 10.67894692 -13.24352134 10.57707265 -17 10.375 C-17.96550781 10.34792969 -18.93101563 10.32085937 -19.92578125 10.29296875 C-22.28624886 10.22285585 -24.64189246 10.12468302 -27 10 C-27 9.01 -27 8.02 -27 7 C-25.72125 7.08121094 -24.4425 7.16242188 -23.125 7.24609375 C-13.81312835 7.96485025 -13.81312835 7.96485025 -5.09765625 5.44140625 C-3.0518417 3.57359071 -3.0518417 3.57359071 -1.47265625 1.53125 C-0.98667969 1.0259375 -0.50070313 0.520625 0 0 Z " fill="#0A3961" transform="translate(79,82)"/>
<path d="M0 0 C0.33 0 0.66 0 1 0 C1.14856987 6.11966367 0.61297569 11.89197968 -0.3125 17.9375 C-0.43044922 18.77990234 -0.54839844 19.62230469 -0.66992188 20.49023438 C-1.53304263 26.23994646 -2.98500206 31.5483798 -5 37 C-5.66 37 -6.32 37 -7 37 C-6.21626673 29.22219136 -4.55064598 21.64082631 -2.9375 14 C-2.65270113 12.63938435 -2.36819349 11.27870771 -2.08398438 9.91796875 C-1.39217812 6.61136936 -0.69743511 3.30541589 0 0 Z " fill="#0B5385" transform="translate(87,43)"/>
<path d="M0 0 C1 2 1 2 0.33984375 4.328125 C-1.20043479 7.39970087 -2.98557351 9.35041348 -5.4375 11.75 C-6.21996094 12.52859375 -7.00242187 13.3071875 -7.80859375 14.109375 C-12.05553837 17.77340565 -16.5703823 17.18328329 -21.875 17.1875 C-22.67808594 17.19974609 -23.48117188 17.21199219 -24.30859375 17.22460938 C-28.66225649 17.23536801 -32.0349899 17.03066307 -36 15 C-35.67 14.34 -35.34 13.68 -35 13 C-34.34 13.33 -33.68 13.66 -33 14 C-31.3325394 14.08426094 -29.66174813 14.10725143 -27.9921875 14.09765625 C-27.00605469 14.09443359 -26.01992188 14.09121094 -25.00390625 14.08789062 C-23.45509766 14.07532227 -23.45509766 14.07532227 -21.875 14.0625 C-20.83472656 14.05798828 -19.79445313 14.05347656 -18.72265625 14.04882812 C-16.14838038 14.03701952 -13.57421854 14.02055075 -11 14 C-10.67 13.01 -10.34 12.02 -10 11 C-8.0156317 9.39625407 -5.93182951 8.01685012 -3.8125 6.59765625 C-1.72113186 4.75418735 -1.44956257 3.69175591 -1 1 C-0.67 0.67 -0.34 0.34 0 0 Z " fill="#035EA3" transform="translate(84,79)"/>
<path d="M0 0 C0.66 0 1.32 0 2 0 C2.35827881 0.78238037 2.71655762 1.56476074 3.08569336 2.37084961 C4.41269586 5.26587324 5.7416772 8.15997747 7.07202148 11.0534668 C7.64801617 12.30733167 8.22321447 13.56156268 8.79760742 14.81616211 C9.62210289 16.61667811 10.44967686 18.41578339 11.27734375 20.21484375 C11.77484131 21.29886475 12.27233887 22.38288574 12.78491211 23.49975586 C13.7754157 25.88438288 13.7754157 25.88438288 15 27 C16.34015221 27.15582303 17.68758903 27.25044142 19.03515625 27.31640625 C19.84404297 27.35830078 20.65292969 27.40019531 21.48632812 27.44335938 C22.33646484 27.48267578 23.18660156 27.52199219 24.0625 27.5625 C24.91650391 27.60568359 25.77050781 27.64886719 26.65039062 27.69335938 C28.76672037 27.79976702 30.88333813 27.90041731 33 28 C33 28.33 33 28.66 33 29 C26.4 29 19.8 29 13 29 C0 3.22033898 0 3.22033898 0 0 Z " fill="#F0A20C" transform="translate(44,56)"/>
<path d="M0 0 C1.23063952 3.69191855 0.66316939 5.5567732 -0.14453125 9.34765625 C-0.54188477 11.21454102 -0.54188477 11.21454102 -0.94726562 13.11914062 C-1.16056519 14.08944214 -1.16056519 14.08944214 -1.37817383 15.0793457 C-1.81118008 17.0564732 -2.22768745 19.03657969 -2.64257812 21.01757812 C-4.74550471 30.74550471 -4.74550471 30.74550471 -7 33 C-7.43480657 26.26049819 -6.62174368 20.24498936 -5.1875 13.6875 C-5.02217773 12.91100098 -4.85685547 12.13450195 -4.68652344 11.33447266 C-3.70494742 7.05602125 -2.54751206 3.65703021 0 0 Z " fill="#F4C80D" transform="translate(75,6)"/>
<path d="M0 0 C6.27 0 12.54 0 19 0 C20.07365377 3.2209613 19.93405499 4.23714565 19.22265625 7.44921875 C19.03896484 8.29677734 18.85527344 9.14433594 18.66601562 10.01757812 C18.46685547 10.89865234 18.26769531 11.77972656 18.0625 12.6875 C17.86720703 13.58017578 17.67191406 14.47285156 17.47070312 15.39257812 C16.98744798 17.59669306 16.49697166 19.7989445 16 22 C15.67 22 15.34 22 15 22 C14.88191167 16.68602509 15.29586623 11.54116281 15.87890625 6.2578125 C15.91886719 5.51273438 15.95882812 4.76765625 16 4 C13.94077598 1.94077598 9.78291876 2.58572421 6.9375 2.4375 C6.17888672 2.39431641 5.42027344 2.35113281 4.63867188 2.30664062 C2.75934562 2.20026367 0.87969756 2.09960066 -1 2 C-0.67 1.34 -0.34 0.68 0 0 Z " fill="#1598EC" transform="translate(79,3)"/>
<path d="M0 0 C0.66 0.33 1.32 0.66 2 1 C1.3503125 2.8253125 1.3503125 2.8253125 0.6875 4.6875 C-2.16445724 13.29769472 -4.53638397 21.88147259 -4 31 C-3.34 29.68 -2.68 28.36 -2 27 C-2.33 29.97 -2.66 32.94 -3 36 C-3.66 36 -4.32 36 -5 36 C-5.69937202 34.5682384 -6.38412718 33.12932968 -7.0625 31.6875 C-7.44535156 30.88699219 -7.82820313 30.08648437 -8.22265625 29.26171875 C-9 27 -9 27 -8 24 C-8 24.66 -8 25.32 -8 26 C-7.34 26 -6.68 26 -6 26 C-5.9175 24.845 -5.835 23.69 -5.75 22.5 C-5.2298176 17.72656152 -4.16136884 13.1496157 -3 8.5 C-2.82178711 7.78134766 -2.64357422 7.06269531 -2.45996094 6.32226562 C-1.13112942 1.13112942 -1.13112942 1.13112942 0 0 Z " fill="#F6D468" transform="translate(73,6)"/>
<path d="M0 0 C0.33 0 0.66 0 1 0 C0.63798315 11.01030547 -0.26138672 21.28668264 -3 32 C-3.99 32 -4.98 32 -6 32 C-5.34941146 24.82856996 -4.01874321 17.95786552 -2.4375 10.9375 C-2.20353516 9.88111328 -1.96957031 8.82472656 -1.72851562 7.73632812 C-1.15653688 5.15658727 -0.58028727 2.57788225 0 0 Z " fill="#0863B6" transform="translate(99,9)"/>
<path d="M0 0 C1.46880034 4.40640103 0.20972964 7.97542366 -0.75 12.4375 C-0.92015625 13.29666016 -1.0903125 14.15582031 -1.265625 15.04101562 C-2.90424583 22.80639153 -2.90424583 22.80639153 -6 26 C-6.21257552 20.58640997 -5.49969174 15.97577852 -4.125 10.75 C-3.95097656 10.04359375 -3.77695312 9.3371875 -3.59765625 8.609375 C-2.74751028 5.28435964 -1.92124358 2.88186537 0 0 Z " fill="#F4C80F" transform="translate(23,39)"/>
<path d="M0 0 C0.66 0.33 1.32 0.66 2 1 C3.8275909 7.46686012 2.00473913 12.736606 0 19 C-0.99 19 -1.98 19 -3 19 C-2.69035138 16.58293696 -2.37738885 14.16638113 -2.0625 11.75 C-1.97548828 11.06808594 -1.88847656 10.38617188 -1.79882812 9.68359375 C-1.3684062 6.39963389 -0.91205869 3.18809706 0 0 Z " fill="#15557E" transform="translate(38,61)"/>
<path d="M0 0 C2.55263088 2.274694 3.84144815 4.43202693 5.1875 7.5625 C5.53167969 8.34753906 5.87585937 9.13257813 6.23046875 9.94140625 C7 12 7 12 7 14 C6.34 14 5.68 14 5 14 C3.68 11.03 2.36 8.06 1 5 C-0.65 11.93 -2.3 18.86 -4 26 C-4.33 26 -4.66 26 -5 26 C-3.46212121 3.46212121 -3.46212121 3.46212121 0 0 Z " fill="#F3DAB1" transform="translate(46,43)"/>
<path d="M0 0 C0.33 0 0.66 0 1 0 C0.67 3.63 0.34 7.26 0 11 C-2.31 11 -4.62 11 -7 11 C-5.5129879 6.40378078 -3.20187872 3.53027653 0 0 Z " fill="#F7D50D" transform="translate(79,69)"/>
<path d="M0 0 C1.48165503 2.96331006 0.48358108 4.89704017 -0.3125 8.0625 C-0.57675781 9.14660156 -0.84101563 10.23070312 -1.11328125 11.34765625 C-2 14 -2 14 -4 15 C-4.66 15.99 -5.32 16.98 -6 18 C-5.5623733 11.34505598 -4.93786695 4.93786695 0 0 Z " fill="#D6B528" transform="translate(24,10)"/>
<path d="M0 0 C0.66 0 1.32 0 2 0 C2.94666116 3.73293338 2.97074447 6.48591865 2.1875 10.25 C2.01605469 11.12140625 1.84460937 11.9928125 1.66796875 12.890625 C1.44753906 13.58671875 1.22710937 14.2828125 1 15 C0.01 15.495 0.01 15.495 -1 16 C-2.08360869 9.93179132 -1.79074734 5.89893243 0 0 Z " fill="#E7950C" transform="translate(41,49)"/>
<path d="M0 0 C0.66 0 1.32 0 2 0 C3.47075246 4.41225737 4.36884358 7.48281619 3 12 C2.34 12 1.68 12 1 12 C0.71125 11.195625 0.4225 10.39125 0.125 9.5625 C-0.73262568 6.8673532 -0.73262568 6.8673532 -3 6 C-2.67 4.68 -2.34 3.36 -2 2 C-1.67 2.33 -1.34 2.66 -1 3 C-0.67 2.01 -0.34 1.02 0 0 Z " fill="#E0A51E" transform="translate(62,30)"/>
<path d="M0 0 C0.33 0 0.66 0 1 0 C0.03644647 10.55808656 0.03644647 10.55808656 -1 15 C-1.99 15 -2.98 15 -4 15 C-2.73076923 2.73076923 -2.73076923 2.73076923 0 0 Z " fill="#075AB2" transform="translate(94,40)"/>
<path d="M0 0 C1.17175781 0.03480469 2.34351563 0.06960937 3.55078125 0.10546875 C5.32001953 0.14607422 5.32001953 0.14607422 7.125 0.1875 C8.02863281 0.22230469 8.93226562 0.25710937 9.86328125 0.29296875 C10.19328125 1.28296875 10.52328125 2.27296875 10.86328125 3.29296875 C5.25328125 3.29296875 -0.35671875 3.29296875 -6.13671875 3.29296875 C-3.13671875 0.29296875 -3.13671875 0.29296875 0 0 Z " fill="#F4CC34" transform="translate(20.13671875,79.70703125)"/>
<path d="M0 0 C2.15053988 7.91046541 0.19092099 15.64700815 -3 23 C-4.01498547 19.82540369 -3.94466465 17.69122329 -3.22265625 14.453125 C-3.03896484 13.60878906 -2.85527344 12.76445313 -2.66601562 11.89453125 C-2.46685547 11.02183594 -2.26769531 10.14914063 -2.0625 9.25 C-1.86720703 8.36183594 -1.67191406 7.47367188 -1.47070312 6.55859375 C-0.98838288 4.37050678 -0.49790968 2.1845827 0 0 Z " fill="#156096" transform="translate(92,20)"/>
<path d="M0 0 C3.44393065 2.66121914 4.09770622 5.86448683 5 10 C4.67 10.66 4.34 11.32 4 12 C3.34 12 2.68 12 2 12 C0.00214565 7.8794254 -0.17835515 4.54805635 0 0 Z " fill="#F4C70C" transform="translate(46,47)"/>
<path d="M0 0 C0.33 0 0.66 0 1 0 C0.67 5.94 0.34 11.88 0 18 C-0.99 18.33 -1.98 18.66 -3 19 C-2.48446121 12.50149789 -1.53332291 6.33773468 0 0 Z " fill="#0C78C7" transform="translate(99,9)"/>
<path d="M0 0 C0.33 0 0.66 0 1 0 C0.91297874 2.27155498 0.80480478 4.54230743 0.6875 6.8125 C0.62949219 8.07707031 0.57148437 9.34164062 0.51171875 10.64453125 C0 14 0 14 -1.54296875 15.94921875 C-2.02378906 16.29597656 -2.50460938 16.64273438 -3 17 C-2.67 15.68 -2.34 14.36 -2 13 C-3.32 12.67 -4.64 12.34 -6 12 C-4.68 11.67 -3.36 11.34 -2 11 C-1.34 7.37 -0.68 3.74 0 0 Z " fill="#487EAB" transform="translate(40,69)"/>
<path d="M0 0 C1.65 0 3.3 0 5 0 C3.02 3.63 1.04 7.26 -1 11 C-2.41687119 6.74938644 -1.19320039 4.28148375 0 0 Z " fill="#F4C606" transform="translate(77,7)"/>
<path d="M0 0 C0.91448257 3.08637868 1 5.79630389 1 9 C1.33 9.66 1.66 10.32 2 11 C0.35 11 -1.3 11 -3 11 C-2.88590407 9.54077307 -2.75834456 8.08259402 -2.625 6.625 C-2.55539062 5.81289062 -2.48578125 5.00078125 -2.4140625 4.1640625 C-2 2 -2 2 0 0 Z " fill="#F6D30F" transform="translate(16,71)"/>
<path d="M0 0 C1.26977059 3.80931176 0.52074507 5.81618993 -0.4375 9.6875 C-0.86869141 11.45673828 -0.86869141 11.45673828 -1.30859375 13.26171875 C-1.65083984 14.61716797 -1.65083984 14.61716797 -2 16 C-2.33 16 -2.66 16 -3 16 C-3 11.71 -3 7.42 -3 3 C-2.01 2.67 -1.02 2.34 0 2 C0 1.34 0 0.68 0 0 Z " fill="#DCC650" transform="translate(82,64)"/>
<path d="M0 0 C1.485 0.99 1.485 0.99 3 2 C1.515 7.445 1.515 7.445 0 13 C-0.33 13 -0.66 13 -1 13 C-1.02708567 11.39592672 -1.04643483 9.7917215 -1.0625 8.1875 C-1.07410156 7.29417969 -1.08570312 6.40085937 -1.09765625 5.48046875 C-1 3 -1 3 0 0 Z " fill="#F6D513" transform="translate(69,26)"/>
<path d="M0 0 C0.66 0.33 1.32 0.66 2 1 C1.34 3.97 0.68 6.94 0 10 C-0.99 10 -1.98 10 -3 10 C-3.36629408 5.72656908 -2.40814077 3.51187196 0 0 Z " fill="#E1B00F" transform="translate(20,24)"/>
<path d="M0 0 C1.10844919 3.32534757 0.84454356 5.62182575 0 9 C-0.99 9.33 -1.98 9.66 -3 10 C-2.88637738 8.5199159 -2.75877092 7.04089926 -2.625 5.5625 C-2.55539063 4.73878906 -2.48578125 3.91507812 -2.4140625 3.06640625 C-2.27742188 2.38449219 -2.14078125 1.70257813 -2 1 C-1.34 0.67 -0.68 0.34 0 0 Z " fill="#0545A8" transform="translate(87,74)"/>
<path d="M0 0 C-1.49097658 3.7952131 -3.75700849 5.61042731 -7 8 C-7.66 7.67 -8.32 7.34 -9 7 C-8.07347299 5.82460004 -7.13336613 4.65989423 -6.1875 3.5 C-5.66542969 2.8503125 -5.14335938 2.200625 -4.60546875 1.53125 C-3 0 -3 0 0 0 Z " fill="#005387" transform="translate(83,82)"/>
<path d="M0 0 C2.34914492 2.34914492 2.73140357 3.95679446 3.625 7.125 C3.88539062 8.03507813 4.14578125 8.94515625 4.4140625 9.8828125 C4.70410156 10.93082031 4.70410156 10.93082031 5 12 C2.69857565 10.21825212 1.19965609 8.83695835 0.51171875 5.953125 C0.27676898 3.9753389 0.13248542 1.98728128 0 0 Z " fill="#DDC861" transform="translate(48,6)"/>
<path d="M0 0 C1 2 1 2 0.3125 4.4375 C-1.10829685 7.21143671 -2.39746148 8.35172561 -5 10 C-5 9.01 -5 8.02 -5 7 C-4.01 6.34 -3.02 5.68 -2 5 C-1.34786708 2.97536745 -1.34786708 2.97536745 -1 1 C-0.67 0.67 -0.34 0.34 0 0 Z " fill="#146BA5" transform="translate(84,79)"/>
</svg>
